<svg id="Layer_1" data-name="Layer 1" xmlns="http://www.w3.org/2000/svg" xmlns:xlink="http://www.w3.org/1999/xlink" width="638" height="200" viewBox="0 0 638 200"><defs><style>.cls-1,.cls-10,.cls-11,.cls-12,.cls-14,.cls-15,.cls-16,.cls-17,.cls-18,.cls-19,.cls-2,.cls-20,.cls-21,.cls-22,.cls-23,.cls-24,.cls-3,.cls-4,.cls-5,.cls-6,.cls-7,.cls-8,.cls-9{stroke:#000;stroke-miterlimit:10;}.cls-1{fill:url(#linear-gradient);}.cls-2{fill:url(#linear-gradient-2);}.cls-3{fill:url(#linear-gradient-3);}.cls-4{fill:url(#linear-gradient-4);}.cls-5{fill:url(#linear-gradient-5);}.cls-6{fill:#754c24;}.cls-7{fill:#fbb03b;}.cls-8{fill:#603813;}.cls-9{fill:none;}.cls-10{fill:url(#linear-gradient-6);}.cls-11{fill:url(#linear-gradient-7);}.cls-12{fill:url(#linear-gradient-8);}.cls-13,.cls-19{fill:#fff;}.cls-14{fill:url(#linear-gradient-9);}.cls-15{fill:url(#linear-gradient-10);}.cls-16{fill:url(#linear-gradient-11);}.cls-17{fill:url(#linear-gradient-12);}.cls-18{fill:url(#linear-gradient-13);}.cls-20{fill:url(#linear-gradient-14);}.cls-21{fill:url(#linear-gradient-15);}.cls-22{fill:url(#linear-gradient-16);}.cls-23{fill:url(#linear-gradient-17);}.cls-24{fill:url(#linear-gradient-18);}</style><linearGradient id="linear-gradient" x1="16.39" y1="122.83" x2="46.39" y2="122.83" gradientTransform="translate(0.61 3.17)" gradientUnits="userSpaceOnUse"><stop offset="0" stop-color="#37b34a"/><stop offset="0.52" stop-color="#009245"/><stop offset="1" stop-color="#006837"/></linearGradient><linearGradient id="linear-gradient-2" x1="207.47" y1="209.93" x2="237.47" y2="209.93" gradientTransform="translate(19.53 -83.93)" xlink:href="#linear-gradient"/><linearGradient id="linear-gradient-3" x1="397.64" y1="296.63" x2="427.64" y2="296.63" gradientTransform="translate(38.36 -170.63)" xlink:href="#linear-gradient"/><linearGradient id="linear-gradient-4" x1="552.43" y1="142.49" x2="571.02" y2="142.49" gradientTransform="matrix(1, 0, 0, 1, 0, 0)" xlink:href="#linear-gradient"/><linearGradient id="linear-gradient-5" x1="481.48" y1="143.63" x2="500.07" y2="143.63" gradientTransform="matrix(1, 0, 0, 1, 0, 0)" xlink:href="#linear-gradient"/><linearGradient id="linear-gradient-6" x1="547.12" y1="81.03" x2="605.17" y2="81.03" gradientTransform="matrix(1, 0, 0, 1, 0, 0)" xlink:href="#linear-gradient"/><linearGradient id="linear-gradient-7" x1="458.71" y1="145.15" x2="477.3" y2="145.15" gradientTransform="matrix(1, 0, 0, 1, 0, 0)" xlink:href="#linear-gradient"/><linearGradient id="linear-gradient-8" x1="527.39" y1="144.39" x2="545.98" y2="144.39" gradientTransform="matrix(1, 0, 0, 1, 0, 0)" xlink:href="#linear-gradient"/><linearGradient id="linear-gradient-9" x1="324.43" y1="142.49" x2="343.02" y2="142.49" gradientTransform="matrix(1, 0, 0, 1, 0, 0)" xlink:href="#linear-gradient"/><linearGradient id="linear-gradient-10" x1="256.48" y1="143.63" x2="275.07" y2="143.63" gradientTransform="matrix(1, 0, 0, 1, 0, 0)" xlink:href="#linear-gradient"/><linearGradient id="linear-gradient-11" x1="337.12" y1="81.03" x2="395.17" y2="81.03" gradientTransform="matrix(1, 0, 0, 1, 0, 0)" xlink:href="#linear-gradient"/><linearGradient id="linear-gradient-12" x1="276.71" y1="145.15" x2="295.3" y2="145.15" gradientTransform="matrix(1, 0, 0, 1, 0, 0)" xlink:href="#linear-gradient"/><linearGradient id="linear-gradient-13" x1="344.39" y1="144.39" x2="362.98" y2="144.39" gradientTransform="matrix(1, 0, 0, 1, 0, 0)" xlink:href="#linear-gradient"/><linearGradient id="linear-gradient-14" x1="132.43" y1="142.49" x2="151.02" y2="142.49" gradientTransform="matrix(1, 0, 0, 1, 0, 0)" xlink:href="#linear-gradient"/><linearGradient id="linear-gradient-15" x1="61.48" y1="143.63" x2="80.07" y2="143.63" gradientTransform="matrix(1, 0, 0, 1, 0, 0)" xlink:href="#linear-gradient"/><linearGradient id="linear-gradient-16" x1="127.12" y1="81.03" x2="185.17" y2="81.03" gradientTransform="matrix(1, 0, 0, 1, 0, 0)" xlink:href="#linear-gradient"/><linearGradient id="linear-gradient-17" x1="38.71" y1="145.15" x2="57.3" y2="145.15" gradientTransform="matrix(1, 0, 0, 1, 0, 0)" xlink:href="#linear-gradient"/><linearGradient id="linear-gradient-18" x1="107.39" y1="144.39" x2="125.98" y2="144.39" gradientTransform="matrix(1, 0, 0, 1, 0, 0)" xlink:href="#linear-gradient"/></defs><title>turtle_ani</title><ellipse class="cls-1" cx="32" cy="126" rx="15" ry="6" transform="translate(-49.38 24.62) rotate(-24.51)"/><ellipse class="cls-2" cx="242" cy="126" rx="15" ry="6" transform="translate(-30.46 111.73) rotate(-24.51)"/><ellipse class="cls-3" cx="451" cy="126" rx="15" ry="6" transform="translate(-11.64 198.42) rotate(-24.51)"/><ellipse class="cls-4" cx="561.73" cy="142.49" rx="9.3" ry="13.85"/><ellipse class="cls-5" cx="490.77" cy="143.63" rx="9.3" ry="13.85"/><path class="cls-6" d="M517.71,122.76l-63.55-.13a63.56,63.56,0,0,1,127.11.13Z"/><path class="cls-7" d="M517.71,122.38l-63.55.05c.07,11.53,28.74,21,63.55,21s63.56-9.5,63.56-21.06Z"/><path class="cls-8" d="M461.37,93.53l6.83,6.28v8l-6.83,4.55-5.71-3.26A63.29,63.29,0,0,1,461.37,93.53Z"/><path class="cls-8" d="M574.85,93.53l-6.11,6.28v8l6.11,4.55,5.09-3.26C578.78,104,576.43,99.13,574.85,93.53Z"/><polygon class="cls-8" points="461.18 112.14 468.19 122.66 454.35 122.39 461.18 112.14"/><polygon class="cls-8" points="475.21 112.14 482.23 122.66 468.38 122.39 475.21 112.14"/><polygon class="cls-8" points="489.63 112.14 496.65 122.66 482.8 122.39 489.63 112.14"/><polygon class="cls-8" points="504.05 112.14 511.07 122.66 497.22 122.39 504.05 112.14"/><polygon class="cls-8" points="518.47 112.14 525.49 122.66 511.64 122.39 518.47 112.14"/><polygon class="cls-8" points="532.51 111.76 539.53 122.28 525.68 122 532.51 111.76"/><polygon class="cls-8" points="546.93 111.76 553.95 122.28 540.1 122 546.93 111.76"/><polygon class="cls-8" points="561.35 111.76 568.37 122.28 554.52 122 561.35 111.76"/><polygon class="cls-8" points="574.25 111.76 581.27 122.28 567.42 122 574.25 111.76"/><polygon class="cls-8" points="461.93 92.47 468 87.48 467.07 84.54 461.93 92.47"/><polygon class="cls-8" points="468 99.62 475.21 91.65 482.42 99.62 482.42 107.21 475.21 112.14 468 107.59 468 99.62"/><polygon class="cls-8" points="482.42 99.62 489.63 91.65 496.84 99.62 496.84 107.21 489.63 112.14 482.42 107.59 482.42 99.62"/><polygon class="cls-8" points="482.42 79.13 489.63 71.16 496.84 79.13 496.84 86.72 489.63 91.65 482.42 87.1 482.42 79.13"/><polygon class="cls-8" points="496.84 79.13 504.05 71.16 511.26 79.13 511.26 86.72 504.05 91.65 496.84 87.1 496.84 79.13"/><polygon class="cls-8" points="511.26 78.75 518.47 70.78 525.68 78.75 525.68 86.34 518.47 91.27 511.26 86.72 511.26 78.75"/><polygon class="cls-8" points="525.68 78.75 532.89 70.78 540.1 78.75 540.1 86.34 532.89 91.27 525.68 86.72 525.68 78.75"/><polygon class="cls-8" points="540.1 79.13 547.31 71.16 554.52 79.13 554.52 86.72 547.31 91.65 540.1 87.1 540.1 79.13"/><polygon class="cls-8" points="496.84 99.62 504.05 91.65 511.26 99.62 511.26 107.21 504.05 112.14 496.84 107.59 496.84 99.62"/><polygon class="cls-8" points="511.26 99.62 518.47 91.65 525.68 99.62 525.68 107.21 518.47 112.14 511.26 107.59 511.26 99.62"/><polygon class="cls-8" points="525.68 99.62 532.89 91.65 540.1 99.62 540.1 107.21 532.89 112.14 525.68 107.59 525.68 99.62"/><polygon class="cls-8" points="540.1 99.62 547.31 91.65 554.52 99.62 554.52 107.21 547.31 112.14 540.1 107.59 540.1 99.62"/><polygon class="cls-8" points="554.52 99.62 561.73 91.65 568.93 99.62 568.93 107.21 561.73 112.14 554.52 107.59 554.52 99.62"/><path class="cls-8" d="M475.59,90.13l-7.21-3.41.19-4.37c1.44-2.81,4-5.2,7-7.44L482,80.27v7.59Z"/><polygon class="cls-8" points="561.73 91.65 554.52 86.72 554.52 79.13 559.37 74.93 566.91 82.72 567.04 85.96 561.73 91.65"/><path class="cls-8" d="M574.33,94.06l-6.91-6.2L567,83.29A47.83,47.83,0,0,1,574.33,94.06Z"/><path class="cls-8" d="M490.36,71.16l-5.55-3.35c5.56-3.54,6.24-3.78,11.76-3.86v.25l.07,3.17Z"/><polygon class="cls-8" points="504.05 71.16 496.84 67.37 496.65 62.84 509.66 59.72 509.74 67.37 504.05 71.16"/><path class="cls-8" d="M518.47,70.78l-8.73-3.41V59.78a59.64,59.64,0,0,1,15.75-.09l.19,7.68Z"/><path class="cls-8" d="M532.89,70.78l-7.21-3.41-.38-7.59a56.87,56.87,0,0,1,14.23,3.34l-.19,4.25Z"/><path class="cls-8" d="M547.31,71.16l-8-3.79V63.19a54.71,54.71,0,0,1,15.18,8Z"/><line class="cls-9" x1="481.48" y1="138.89" x2="469.71" y2="124.85"/><line class="cls-9" x1="497.22" y1="140.22" x2="484.13" y2="124.85"/><line class="cls-9" x1="510.12" y1="140.6" x2="498.55" y2="126.37"/><line class="cls-9" x1="523.59" y1="141.55" x2="508.98" y2="125.04"/><line class="cls-9" x1="536.68" y1="139.84" x2="523.4" y2="124.28"/><line class="cls-9" x1="548.82" y1="137.94" x2="536.3" y2="123.52"/><line class="cls-9" x1="559.83" y1="136.04" x2="549.58" y2="123.52"/><line class="cls-9" x1="571.21" y1="132.63" x2="562.86" y2="123.14"/><line class="cls-9" x1="469.14" y1="134.53" x2="460.8" y2="125.04"/><circle class="cls-10" cx="576.14" cy="81.03" r="29.03"/><ellipse class="cls-11" cx="468.01" cy="145.15" rx="9.3" ry="13.85"/><ellipse class="cls-12" cx="536.68" cy="144.39" rx="9.3" ry="13.85"/><circle cx="591.32" cy="74.96" r="2.85"/><circle cx="567.23" cy="74.77" r="3.41"/><circle class="cls-13" cx="566.09" cy="74.01" r="0.76"/><circle class="cls-13" cx="590.37" cy="74.01" r="0.76"/><path class="cls-9" d="M567.42,84.66C567.23,92,571.42,95.9,579,97c7-.24,11-4.54,12-12"/><ellipse class="cls-14" cx="333.73" cy="142.49" rx="9.3" ry="13.85"/><ellipse class="cls-15" cx="265.77" cy="143.63" rx="9.3" ry="13.85"/><path class="cls-6" d="M307.71,122.76l-63.55-.13a63.56,63.56,0,0,1,127.11.13Z"/><path class="cls-7" d="M307.71,122.38l-63.55.05c.07,11.53,28.74,21,63.55,21s63.56-9.5,63.56-21.06Z"/><path class="cls-8" d="M251.37,93.53l6.83,6.28v8l-6.83,4.55-5.71-3.26A63.29,63.29,0,0,1,251.37,93.53Z"/><path class="cls-8" d="M364.85,93.53l-6.11,6.28v8l6.11,4.55,5.09-3.26C368.78,104,366.43,99.13,364.85,93.53Z"/><polygon class="cls-8" points="251.18 112.14 258.19 122.66 244.35 122.39 251.18 112.14"/><polygon class="cls-8" points="265.21 112.14 272.23 122.66 258.38 122.39 265.21 112.14"/><polygon class="cls-8" points="279.63 112.14 286.65 122.66 272.8 122.39 279.63 112.14"/><polygon class="cls-8" points="294.05 112.14 301.07 122.66 287.22 122.39 294.05 112.14"/><polygon class="cls-8" points="308.47 112.14 315.49 122.66 301.64 122.39 308.47 112.14"/><polygon class="cls-8" points="322.51 111.76 329.53 122.28 315.68 122 322.51 111.76"/><polygon class="cls-8" points="336.93 111.76 343.95 122.28 330.1 122 336.93 111.76"/><polygon class="cls-8" points="351.35 111.76 358.37 122.28 344.52 122 351.35 111.76"/><polygon class="cls-8" points="364.25 111.76 371.27 122.28 357.42 122 364.25 111.76"/><polygon class="cls-8" points="251.93 92.47 258 87.48 257.07 84.54 251.93 92.47"/><polygon class="cls-8" points="258 99.62 265.21 91.65 272.42 99.62 272.42 107.21 265.21 112.14 258 107.59 258 99.62"/><polygon class="cls-8" points="272.42 99.62 279.63 91.65 286.84 99.62 286.84 107.21 279.63 112.14 272.42 107.59 272.42 99.62"/><polygon class="cls-8" points="272.42 79.13 279.63 71.16 286.84 79.13 286.84 86.72 279.63 91.65 272.42 87.1 272.42 79.13"/><polygon class="cls-8" points="286.84 79.13 294.05 71.16 301.26 79.13 301.26 86.72 294.05 91.65 286.84 87.1 286.84 79.13"/><polygon class="cls-8" points="301.26 78.75 308.47 70.78 315.68 78.75 315.68 86.34 308.47 91.27 301.26 86.72 301.26 78.75"/><polygon class="cls-8" points="315.68 78.75 322.89 70.78 330.1 78.75 330.1 86.34 322.89 91.27 315.68 86.72 315.68 78.75"/><polygon class="cls-8" points="330.1 79.13 337.31 71.16 344.52 79.13 344.52 86.72 337.31 91.65 330.1 87.1 330.1 79.13"/><polygon class="cls-8" points="286.84 99.62 294.05 91.65 301.26 99.62 301.26 107.21 294.05 112.14 286.84 107.59 286.84 99.62"/><polygon class="cls-8" points="301.26 99.62 308.47 91.65 315.68 99.62 315.68 107.21 308.47 112.14 301.26 107.59 301.26 99.62"/><polygon class="cls-8" points="315.68 99.62 322.89 91.65 330.1 99.62 330.1 107.21 322.89 112.14 315.68 107.59 315.68 99.62"/><polygon class="cls-8" points="330.1 99.62 337.31 91.65 344.52 99.62 344.52 107.21 337.31 112.14 330.1 107.59 330.1 99.62"/><polygon class="cls-8" points="344.52 99.62 351.73 91.65 358.94 99.62 358.94 107.21 351.73 112.14 344.52 107.59 344.52 99.62"/><path class="cls-8" d="M265.59,90.13l-7.21-3.41.19-4.37c1.44-2.81,4-5.2,7-7.44L272,80.27v7.59Z"/><polygon class="cls-8" points="351.73 91.65 344.52 86.72 344.52 79.13 349.37 74.93 356.91 82.72 357.04 85.96 351.73 91.65"/><path class="cls-8" d="M364.33,94.06l-6.91-6.2L357,83.29A47.83,47.83,0,0,1,364.33,94.06Z"/><path class="cls-8" d="M280.36,71.16l-5.55-3.35c5.56-3.54,6.24-3.78,11.76-3.86v.25l.07,3.17Z"/><polygon class="cls-8" points="294.05 71.16 286.84 67.37 286.65 62.84 299.66 59.72 299.74 67.37 294.05 71.16"/><path class="cls-8" d="M308.47,70.78l-8.73-3.41V59.78a59.64,59.64,0,0,1,15.75-.09l.19,7.68Z"/><path class="cls-8" d="M322.89,70.78l-7.21-3.41-.38-7.59a56.87,56.87,0,0,1,14.23,3.34l-.19,4.25Z"/><path class="cls-8" d="M337.31,71.16l-8-3.79V63.19a54.71,54.71,0,0,1,15.18,8Z"/><line class="cls-9" x1="271.48" y1="138.89" x2="259.71" y2="124.85"/><line class="cls-9" x1="287.22" y1="140.22" x2="274.13" y2="124.85"/><line class="cls-9" x1="300.12" y1="140.6" x2="288.55" y2="126.37"/><line class="cls-9" x1="313.59" y1="141.55" x2="298.98" y2="125.04"/><line class="cls-9" x1="326.68" y1="139.84" x2="313.4" y2="124.28"/><line class="cls-9" x1="338.82" y1="137.94" x2="326.3" y2="123.52"/><line class="cls-9" x1="349.83" y1="136.04" x2="339.58" y2="123.52"/><line class="cls-9" x1="361.21" y1="132.63" x2="352.86" y2="123.14"/><line class="cls-9" x1="259.14" y1="134.53" x2="250.8" y2="125.04"/><circle class="cls-16" cx="366.14" cy="81.03" r="29.03"/><ellipse class="cls-17" cx="286.01" cy="145.15" rx="9.3" ry="13.85"/><ellipse class="cls-18" cx="353.68" cy="144.39" rx="9.3" ry="13.85"/><path d="M381.32,75l-2.84.11V75a2.85,2.85,0,1,1,5.69,0Z"/><path d="M357.23,74.77l-3.42,0v0a3.42,3.42,0,1,1,6.83,0Z"/><circle class="cls-13" cx="356.09" cy="74.01" r="0.76"/><circle class="cls-13" cx="380.37" cy="74.01" r="0.76"/><path class="cls-19" d="M357.42,84.66a12.55,12.55,0,0,0,1.35,6.42c1.79,3.27,5.29,5.2,10.23,5.92a12.65,12.65,0,0,0,6.3-1.73,11,11,0,0,0,1.6-1.21,11.39,11.39,0,0,0,2.4-3.23A18.14,18.14,0,0,0,381,85a28,28,0,0,1-11.5,2.5A28.5,28.5,0,0,1,357.42,84.66Z"/><ellipse class="cls-20" cx="141.73" cy="142.49" rx="9.3" ry="13.85"/><ellipse class="cls-21" cx="70.77" cy="143.63" rx="9.3" ry="13.85"/><path class="cls-6" d="M97.71,122.76l-63.55-.13a63.56,63.56,0,0,1,127.11.13Z"/><path class="cls-7" d="M97.71,122.38l-63.55.05c.07,11.53,28.74,21,63.55,21s63.56-9.5,63.56-21.06Z"/><path class="cls-8" d="M41.37,93.53l6.83,6.28v8l-6.83,4.55-5.71-3.26A63.29,63.29,0,0,1,41.37,93.53Z"/><path class="cls-8" d="M154.85,93.53l-6.11,6.28v8l6.11,4.55,5.09-3.26C158.78,104,156.43,99.13,154.85,93.53Z"/><polygon class="cls-8" points="41.18 112.14 48.2 122.66 34.35 122.39 41.18 112.14"/><polygon class="cls-8" points="55.22 112.14 62.23 122.66 48.38 122.39 55.22 112.14"/><polygon class="cls-8" points="69.63 112.14 76.65 122.66 62.8 122.39 69.63 112.14"/><polygon class="cls-8" points="84.05 112.14 91.07 122.66 77.22 122.39 84.05 112.14"/><polygon class="cls-8" points="98.47 112.14 105.49 122.66 91.64 122.39 98.47 112.14"/><polygon class="cls-8" points="112.51 111.76 119.53 122.28 105.68 122 112.51 111.76"/><polygon class="cls-8" points="126.93 111.76 133.95 122.28 120.1 122 126.93 111.76"/><polygon class="cls-8" points="141.35 111.76 148.37 122.28 134.52 122 141.35 111.76"/><polygon class="cls-8" points="154.25 111.76 161.27 122.28 147.42 122 154.25 111.76"/><polygon class="cls-8" points="41.93 92.47 48.01 87.48 47.08 84.54 41.93 92.47"/><polygon class="cls-8" points="48.01 99.62 55.22 91.65 62.42 99.62 62.42 107.21 55.22 112.14 48.01 107.59 48.01 99.62"/><polygon class="cls-8" points="62.42 99.62 69.63 91.65 76.84 99.62 76.84 107.21 69.63 112.14 62.42 107.59 62.42 99.62"/><polygon class="cls-8" points="62.42 79.13 69.63 71.16 76.84 79.13 76.84 86.72 69.63 91.65 62.42 87.1 62.42 79.13"/><polygon class="cls-8" points="76.84 79.13 84.05 71.16 91.26 79.13 91.26 86.72 84.05 91.65 76.84 87.1 76.84 79.13"/><polygon class="cls-8" points="91.26 78.75 98.47 70.78 105.68 78.75 105.68 86.34 98.47 91.27 91.26 86.72 91.26 78.75"/><polygon class="cls-8" points="105.68 78.75 112.89 70.78 120.1 78.75 120.1 86.34 112.89 91.27 105.68 86.72 105.68 78.75"/><polygon class="cls-8" points="120.1 79.13 127.31 71.16 134.52 79.13 134.52 86.72 127.31 91.65 120.1 87.1 120.1 79.13"/><polygon class="cls-8" points="76.84 99.62 84.05 91.65 91.26 99.62 91.26 107.21 84.05 112.14 76.84 107.59 76.84 99.62"/><polygon class="cls-8" points="91.26 99.62 98.47 91.65 105.68 99.62 105.68 107.21 98.47 112.14 91.26 107.59 91.26 99.62"/><polygon class="cls-8" points="105.68 99.62 112.89 91.65 120.1 99.62 120.1 107.21 112.89 112.14 105.68 107.59 105.68 99.62"/><polygon class="cls-8" points="120.1 99.62 127.31 91.65 134.52 99.62 134.52 107.21 127.31 112.14 120.1 107.59 120.1 99.62"/><polygon class="cls-8" points="134.52 99.62 141.72 91.65 148.94 99.62 148.94 107.21 141.72 112.14 134.52 107.59 134.52 99.62"/><path class="cls-8" d="M55.59,90.13l-7.21-3.41.19-4.37c1.44-2.81,4-5.2,7-7.44L62,80.27v7.59Z"/><polygon class="cls-8" points="141.72 91.65 134.52 86.72 134.52 79.13 139.37 74.93 146.91 82.72 147.04 85.96 141.72 91.65"/><path class="cls-8" d="M154.33,94.06l-6.91-6.2L147,83.29A47.83,47.83,0,0,1,154.33,94.06Z"/><path class="cls-8" d="M70.36,71.16l-5.55-3.35C70.37,64.27,71.05,64,76.57,64v.25l.07,3.17Z"/><polygon class="cls-8" points="84.05 71.16 76.84 67.37 76.65 62.84 89.66 59.72 89.74 67.37 84.05 71.16"/><path class="cls-8" d="M98.47,70.78l-8.73-3.41V59.78a59.64,59.64,0,0,1,15.75-.09l.19,7.68Z"/><path class="cls-8" d="M112.89,70.78l-7.21-3.41-.38-7.59a56.87,56.87,0,0,1,14.23,3.34l-.19,4.25Z"/><path class="cls-8" d="M127.31,71.16l-8-3.79V63.19a54.71,54.71,0,0,1,15.18,8Z"/><line class="cls-9" x1="61.48" y1="138.89" x2="49.71" y2="124.85"/><line class="cls-9" x1="77.22" y1="140.22" x2="64.13" y2="124.85"/><line class="cls-9" x1="90.12" y1="140.6" x2="78.55" y2="126.37"/><line class="cls-9" x1="103.59" y1="141.55" x2="88.98" y2="125.04"/><line class="cls-9" x1="116.68" y1="139.84" x2="103.4" y2="124.28"/><line class="cls-9" x1="128.82" y1="137.94" x2="116.3" y2="123.52"/><line class="cls-9" x1="139.83" y1="136.04" x2="129.58" y2="123.52"/><line class="cls-9" x1="151.21" y1="132.63" x2="142.86" y2="123.14"/><line class="cls-9" x1="49.14" y1="134.53" x2="40.8" y2="125.04"/><circle class="cls-22" cx="156.14" cy="81.03" r="29.03"/><ellipse class="cls-23" cx="48.01" cy="145.15" rx="9.3" ry="13.85"/><ellipse class="cls-24" cx="116.68" cy="144.39" rx="9.3" ry="13.85"/><circle cx="171.32" cy="74.96" r="2.85"/><circle cx="147.23" cy="74.77" r="3.41"/><circle class="cls-13" cx="146.09" cy="74.01" r="0.76"/><circle class="cls-13" cx="170.37" cy="74.01" r="0.76"/><path class="cls-9" d="M147.42,84.66C147.23,92,151.42,95.9,159,97c7-.24,11-4.54,12-12"/><line class="cls-19" x1="378.5" y1="91.5" x2="359.5" y2="91.5"/></svg>
